<?xml version="1.0" standalone="no"?><!DOCTYPE svg PUBLIC "-//W3C//DTD SVG 1.1//EN" "http://www.w3.org/Graphics/SVG/1.1/DTD/svg11.dtd"><svg t="1694166367034" class="icon" viewBox="0 0 1024 1024" version="1.1" xmlns="http://www.w3.org/2000/svg" p-id="11496" xmlns:xlink="http://www.w3.org/1999/xlink" width="32" height="32"><path d="M384 938.666667h42.666667v-85.333334h-42.197334C371.328 853.077333 256 845.952 256 682.666667c0-85.034667-28.373333-138.496-64.085333-170.666667C227.626667 479.829333 256 426.368 256 341.333333c0-163.285333 115.328-170.410667 128-170.666666h42.666667V85.333333H383.914667C310.144 85.504 170.666667 139.264 170.666667 341.333333c0 119.466667-71.594667 127.573333-85.930667 128L85.333333 554.666667c3.498667 0 85.333333 1.450667 85.333334 128 0 202.069333 139.477333 255.829333 213.333333 256z m554.666667-469.333334c-3.498667 0-85.333333-1.450667-85.333334-128 0-202.069333-139.477333-255.829333-213.333333-256h-42.666667v85.333334h42.197334c13.141333 0.256 128.469333 7.381333 128.469333 170.666666 0 85.034667 28.373333 138.496 64.085333 170.666667-35.712 32.170667-64.085333 85.632-64.085333 170.666667 0 163.285333-115.328 170.410667-128 170.666666h-42.666667v85.333334h42.752C713.856 938.496 853.333333 884.736 853.333333 682.666667c0-119.466667 71.594667-127.573333 85.930667-128L938.666667 469.333333z" p-id="11497"></path></svg>