<?xml version="1.0" standalone="no"?><!DOCTYPE svg PUBLIC "-//W3C//DTD SVG 1.1//EN" "http://www.w3.org/Graphics/SVG/1.1/DTD/svg11.dtd"><svg t="1694166414953" class="icon" viewBox="0 0 1024 1024" version="1.1" xmlns="http://www.w3.org/2000/svg" p-id="14195" xmlns:xlink="http://www.w3.org/1999/xlink" width="32" height="32"><path d="M264.90827 999.628849H986.622027a12.339175 12.339175 0 0 0 12.390375-12.185576V268.238312h-211.506777a36.966326 36.966326 0 0 1-37.375925-36.607927V24.373199H264.90827A12.595175 12.595175 0 0 0 255.999488 27.957192a12.083176 12.083176 0 0 0-3.583993 8.601583v950.884498c0 6.707187 5.529589 12.185576 12.441575 12.185576z" fill="#FFFFFF" p-id="14196"></path><path d="M993.892412 243.76476L775.16645 29.493189v202.137196a12.287975 12.287975 0 0 0 12.390375 12.134375h206.335587z" fill="#FFFFFF" p-id="14197"></path><path d="M1013.041174 228.046392L791.294417 10.754026a37.427125 37.427125 0 0 0-26.521547-10.751978H264.90827c-20.633559 0-37.375925 16.383967-37.375925 36.556727v950.884498c0 20.17276 16.742367 36.556727 37.375925 36.556727H986.622027c20.633559 0 37.324725-16.383967 37.324725-36.556727V253.90234c0-9.727981-3.942392-18.995162-10.956778-25.855948zM775.06405 29.390789l218.828362 214.373971h-206.335587a12.339175 12.339175 0 0 1-12.492775-12.134375V29.390789z m211.609177 970.23806H264.90827a12.595175 12.595175 0 0 1-8.857582-3.583993 12.083176 12.083176 0 0 1-3.583993-8.601583V36.558775c0-6.707187 5.529589-12.185576 12.441575-12.185576h485.27263v207.257186c0 20.22396 16.742367 36.607927 37.375925 36.607927h211.455577v719.204961a12.339175 12.339175 0 0 1-12.339175 12.185576z" fill="#605E5C" opacity=".64" p-id="14198"></path><path d="M0 341.351765m51.199898 0l921.598156 0q51.199898 0 51.199898 51.199898l0 352.716094q0 51.199898-51.199898 51.199898l-921.598156 0q-51.199898 0-51.199898-51.199898l0-352.716094q0-51.199898 51.199898-51.199898Z" fill="#0563B2" p-id="14199"></path><path d="M387.276025 502.477843c-23.654353 0-42.393515 7.987184-55.910288 24.268752-14.131172 15.974368-20.889558 35.635129-20.889558 59.289481 0 26.419147 7.372785 47.001506 22.118356 62.054276 13.823972 14.438371 32.563135 21.811156 56.217487 21.811156 21.196758 0 38.707123-6.143988 52.838295-18.124764 11.059178-9.83038 18.431963-22.425555 22.118355-37.171125h-35.020729c-4.300791 8.908782-8.908782 15.359969-14.131172 19.353561a43.110314 43.110314 0 0 1-26.111948 7.372785c-12.595175 0-22.425555-3.993592-29.183942-11.673576-6.758386-7.679985-10.751978-19.046362-11.980776-33.791933h118.886163c0-28.569543-6.451187-50.995098-19.046362-66.969466-13.823972-17.817564-33.791932-26.419147-59.903881-26.419147z m0.921599 28.569543c24.575951 0 38.399923 12.595175 41.471917 38.399923H347.954504c2.150396-12.595175 6.451187-22.118356 12.902374-28.569543 6.758386-6.758386 15.667169-9.83038 27.340746-9.83038zM481.995836 506.778634l54.681491 74.342252L474.93025 665.600717h41.164718l39.93592-58.675083 39.628721 58.675083h41.164717l-61.747076-84.479831L629.75874 506.778634h-40.857518l-32.870334 48.537503-33.177534-48.537503zM735.23053 502.477843c-20.889558 0-36.863926 7.065586-47.923105 21.196758v-16.895967h-32.563134v219.647561h35.020729v-82.636635c12.902374 17.203166 28.876742 26.111948 47.308706 26.111948 22.732755 0 40.857518-8.294383 53.759892-24.88315 11.980776-15.359969 18.124764-34.713531 18.124764-58.060684 0-24.575951-6.143988-44.236712-18.431963-59.596681-13.516773-16.588767-31.948736-24.88315-55.295889-24.88315z m-5.22239 28.262344c15.359969 0 26.726347 5.529589 34.099132 16.588766 5.836788 9.215982 8.908782 22.425555 8.908782 39.628721s-3.379193 30.412739-9.83038 39.628721c-7.372785 9.83038-19.046362 15.05277-34.406332 15.05277a34.201532 34.201532 0 0 1-27.955144-13.823973c-8.294383-10.13758-12.287975-23.654353-12.287975-40.243119v-2.457595c0-15.974368 3.071994-28.569543 9.83038-38.092724 7.372785-11.059178 17.817564-16.281567 31.641537-16.281567z" fill="#FFFFFF" p-id="14200"></path></svg>